<svg id="Layer_1" data-name="Layer 1" xmlns="http://www.w3.org/2000/svg" viewBox="0 0 325 386" preserveAspectRatio="xMinYMin meet">
  <title>logo</title>
  <g>
    <path d="M269.84,346H187.4c-1.8,0-2-.36-2-2.53v-118c0-1.62-.18-1.8,1.62-1.8h81.54c1.8,0,2,.18,2,2.34v22c0,1.62-.54,2.53-2,2.53L217,250v20.38h50.51c1.62,0,1.81.36,1.81,2.52v22c0,2.17-.18,2.53-1.81,2.53H217v20.92l52.86-.54c2,0,2,0,2,2.34v23.27C271.82,345.6,271.64,346,269.84,346Z"></path>
    <path d="M173.46,193.59c-38.42,0-64-29-64-63.68,0-37,27.78-64.22,63.14-64.22,29.76,0,48,16.05,56.1,34.45,0.9,2.17.18,2.89-.54,3.25l-26.88,10.46c-1.08.36-1.26,0-1.62-.9-5.23-10.82-13.89-16.41-26.34-16.41-18,0-29.58,14.25-29.58,33.55,0,22.55,15,32.83,30.12,32.83,12.27,0,20.92-6,25.26-15.15,0.54-.9.72-1.62,2.16-1.26l27.06,7.4c1.8,0.36,2,1.26,1.62,2.34A60.61,60.61,0,0,1,173.46,193.59Z"></path>
    <path d="M161.17,146.7H127.43a2,2,0,0,1-2.16-1.44c-2.17-4.87-4.87-11.54-6.67-16.05H74.94c-2.17,5.05-4.51,11.18-6.31,15.51-0.54,1.44-.9,2-3.25,2H35.43c-1.44,0-1.62-.72-0.9-2.53C53.29,104.31,81.8,46.76,95.87,20.43c0.18-.36,1.08-0.36,2.17-0.36s2-.18,2.17.36c16.41,32.11,41.85,83.88,61.69,123.75C163,146.52,162.79,146.7,161.17,146.7ZM96.23,78.33L84,105.75H109Z"></path>
    <path d="M197.61,278c-34.46,0-51.05-19.48-51.05-49.25v-75c0-1.08,0-1.08.9-1.08h30.31c1.26,0,1.26,0,1.26,1.44v80.27c0,12.09,10.1,17.14,18.94,17.14,8.66,0,18.94-4.87,18.94-17.14V153.9c0-1.08,0-1.26,1.08-1.26h29.58c0.9,0,.9,0,0.9,1.26v76.67C248.48,259.61,233.5,278,197.61,278Z"></path>
    <path d="M288.19,286.92H258.25c-1.62,0-1.62.18-1.62-1.62V166.24c0-1.8,0-1.62,1.62-1.62h29.95c1.62,0,1.81.18,1.81,1.62V285.3C290,286.74,289.82,286.92,288.19,286.92Z"></path>
    <path d="M189.13,331.31H157.2c-1.44,0-2.16-.36-3.79-3.61-6.13-11.73-19.3-32.47-19.3-32.47l-20.74.36v34.09c0,1.44-.18,1.62-1.44,1.62H82.34c-1.44,0-1.44.18-1.44-1.62V210.63c0-1.8.91-1.62,1.44-1.62h55.92c27.78,0,42.57,19.12,42.57,41.31,0,16.6-5.77,28.32-16.78,33.55,4.69,7.4,15,25.61,25.43,42.57C191.66,330,191.11,331.31,189.13,331.31Zm-57.91-95.43H113.37v35.36l18-.54c9.74-.36,15.15-7.58,15.15-18C146.56,243.1,141.69,235.88,131.22,235.88Z"></path>
    <path d="M122.69,245.16v26.52A2.82,2.82,0,0,1,122,274a3.67,3.67,0,0,1-2.34-.18c-11-4.15-19.84-8.3-29.4-12.63A54.72,54.72,0,0,1,79,262.3a63.95,63.95,0,1,1,64-63.86A63.17,63.17,0,0,1,122.69,245.16ZM79,165.25c-19.48,0-30.31,14.61-30.31,33.19s10.82,33,30.31,33c19.12,0,30.31-14.43,30.31-33S98.16,165.25,79,165.25Z"></path>
  </g>
</svg>
