<svg id="Layer_1" data-name="Layer 1" xmlns="http://www.w3.org/2000/svg" viewBox="0 0 941 398" preserveAspectRatio="xMinYMin meet"><title>BEEEEES!</title><path d="M132.78,211c14.36,8.15,26,16.9,34.38,29.37a65.61,65.61,0,0,1,11.11,44.12c-5.33,56-39.13,89.12-89.08,106.94-24.38,8.69-50.56,8.07-75.54-1.66-1.39-.54-2.74-1.22-4.09-1.87-6.7-3.23-9.89-7.63-9.55-16,2.91-70.41,5.3-140.85,7.75-211.28q1.28-36.71,2.09-73.43c.1-4.47,1.65-7.41,5.41-9.86,21.15-13.79,43.61-25,68.83-27.91,48.35-5.58,89.17,19.1,92.45,75.62,1.72,29.69-11.68,52.62-30.47,73.49C142.23,202.85,137.67,206.5,132.78,211ZM73.69,333.75c20.24-3.94,38.7-20.48,37.89-45.81-.63-19.85-12-30.18-31.8-28.86-4.1.27-5.74,1.39-5.72,5.88.08,21.3-.21,42.61-.36,63.91C73.68,330.46,73.69,332,73.69,333.75Zm3.64-153.08c12.3-9.19,22.8-19,29.72-32.12,4.6-8.73,6.44-17.72,3.29-27.45-3.63-11.21-10-15.3-21.58-13.17-2.11.39-4.11,1.35-6.21,1.86-3.1.74-4.11,2.55-4.16,5.74-.22,15.66-.72,31.32-1,47C77.23,168.28,77.33,174.06,77.33,180.68Z"></path><path d="M247,303.17c10.94-1.87,21.41-3.68,31.88-5.43,10.84-1.81,21.69-3.62,32.55-5.34,6.47-1,8.15.15,9.25,6.52,2.13,12.33,1.19,24.61-1.4,36.74a7.89,7.89,0,0,1-4.4,4.76c-39.54,14.74-79.56,27.86-121.31,34.93-5.21.88-7.22-1.15-7.16-7.3.26-25,.63-50,.89-75q1.09-105,2.11-210c.09-9.54.82-10.62,10.14-11.74,36.29-4.36,72.69-6.18,109.23-4.42,7.81.37,9.72,1.51,10.81,9.13,1.67,11.64,2.32,23.45,2.94,35.21.29,5.48-4.05,6.61-8.53,7-18.09,1.62-36.16,3.41-54.27,4.77-4.35.33-6.07,1.52-6.18,6.1-.25,10.3-1.07,20.58-1.7,31.66,2,0,3.78,0,5.52,0,13.33-.24,26.66-.54,40-.73,6.72-.1,7.93,1,9.53,7.6,2.43,10.06,2.11,20.13.42,30.26-.78,4.71-3,7.26-7.88,8.15-15.9,2.88-31.72,6.18-47.6,9.15-2.92.55-4.32,1.49-4.34,4.73-.19,26.83-.54,53.66-.83,80.48A24.29,24.29,0,0,0,247,303.17Z"></path><path d="M387,289.72c8.29-1.43,16.1-2.81,23.93-4.13,11.5-1.93,23-3.87,34.51-5.68,5.8-.91,8.16.27,8.41,6.15.49,11.41.25,22.88-.33,34.3-.11,2.07-2.88,5-5.07,5.82-34,13.23-68.49,25.09-104.57,31.56-1.48.26-2.95.58-4.43.75-4.83.57-6.88-1-7-6-.21-6.16-.13-12.33-.19-18.49Q331,217.35,329.85,100.65c-.08-7.66-.39-15.32-.42-23,0-5.56,1.78-7.69,7.15-8.33,33.12-4,66.35-6,99.72-4.87,9,.31,11,1.37,12.57,10.26a295.3,295.3,0,0,1,3.43,31.65c.37,5.27-2.11,7.43-8.11,8-15.75,1.52-31.51,2.89-47.27,4.23-7.13.61-7.23.5-7.3,7.43-.09,9.13,0,18.27,0,28.08,1.07,0,2.81.21,4.55.19,11.83-.13,23.65-.32,35.48-.46,6.64-.08,7.48.62,9.19,7.25,2.55,9.86,2.42,19.76.81,29.74-.67,4.17-2.81,6.42-7,7.22-14.24,2.7-28.42,5.67-42.66,8.35-3,.57-4.12,1.69-4.08,4.89.33,24.49.47,49,.69,73.46C386.56,286.22,386.8,287.66,387,289.72Z"></path><path d="M514.07,277.56l22.22-3.83c10.17-1.76,20.34-3.57,30.52-5.29,5.75-1,8.13.2,8.49,6.1.67,10.9.58,21.86.28,32.79-.05,1.88-2.3,4.62-4.17,5.39-32,13.05-64.47,24.45-98.62,30.44-5.86,1-7.77-.81-8-7.58-.95-33.31-1.74-66.62-2.81-99.92Q459.46,156,456.63,76.34c-.21-6,1.18-8.42,7.32-9.16,12.72-1.53,25.48-3.07,38.27-3.56,18-.69,35.95-.56,53.92-.5,7.17,0,9.14,1.38,10.36,8.29,1.84,10.45,2.91,21,4,31.6.48,4.56-2,7.14-6.66,7.6-15.25,1.51-30.48,3.19-45.74,4.54-3.44.31-4.55,1.52-4.51,4.89.08,8,0,16-.34,24-.15,3.63,1.2,4.53,4.61,4.44,11-.29,22-.2,33-.49,4.59-.12,7,1.67,8.18,6.16a73,73,0,0,1,1.49,29.73c-.57,3.76-2.47,5.95-6.27,6.72-12.57,2.55-25.09,5.34-37.68,7.76-3.58.69-4.94,1.8-4.79,5.79.83,21.81,1.31,43.63,1.92,65.44C513.77,271.9,513.91,274.22,514.07,277.56Z"></path><path d="M630.9,266.39c12.53-2.25,24.78-4.47,37-6.66,3.77-.67,7.56-1.24,11.33-1.91s6.61.8,6.86,4.58c.72,10.91,1.22,21.85,1.2,32.78,0,2-2.48,4.86-4.49,5.71-28.73,12.14-58,22.7-88.81,28.35-6.4,1.17-8.29-.56-8.63-7.94-1.81-38.27-3.52-76.54-5.4-114.81-2.15-43.75-4.46-87.5-6.68-131.25-.38-7.56.73-9.1,8.36-10.11a464.17,464.17,0,0,1,82.25-3.78c7.73.36,9.8,1.67,11.27,9.38,1.83,9.61,2.73,19.41,3.75,29.16.52,5-2.6,7.23-7.22,7.69-13.09,1.32-26.17,2.77-39.28,3.81-4,.31-5.56,1.48-5.38,5.64.31,7.15.31,14.33.07,21.48-.13,3.86,1.37,4.85,5,4.71,9.32-.37,18.65-.49,28-.63,6.59-.1,8.6,1,9.52,7.6,1.17,8.35,1.45,16.84,1.81,25.28.21,5-2.45,7.86-7.57,8.86-11.11,2.17-22.14,4.74-33.24,7-2.43.5-3.89,1.15-3.74,4.1,1.19,23,2.24,45.92,3.36,68.88A11.13,11.13,0,0,0,630.9,266.39Z"></path><path d="M737.31,256.22c7.25-1.34,14.4-2.68,21.56-4S773,249.6,780,248.42c5.68-.95,7.87,0,8.43,5.58,1,10.05,1.33,20.2,1.37,30.31,0,1.86-2.23,4.64-4.11,5.47-26.58,11.7-53.74,21.72-82.43,27-4.69.87-6.89-1.09-7.23-6.35-2-30.93-3.9-61.86-6-92.78q-4.68-69.06-9.6-138.11c-1.06-14.91-1.14-15.2,13.92-17,23.69-2.8,47.46-4,71.32-2.64,4.5.26,7.59,2.19,8.34,6.4q2.78,15.68,4.72,31.51c.51,4.26-2.56,6.23-6.53,6.65-11.92,1.27-23.84,2.68-35.79,3.63-4,.32-5.5,1.5-5.21,5.68.46,6.81.46,13.66.43,20.49,0,3,1,4.06,4.11,4,9-.29,18-.19,27-.45,4.58-.13,7.54,1.7,8.08,6.26,1,8.39,1.83,16.81,2.39,25.24.35,5.37-2.71,8-7.95,9-9.65,1.86-19.21,4.16-28.82,6.18-2.57.54-4.19,1.31-4,4.5,1.45,21.61,2.74,43.23,4.11,64.85A12.32,12.32,0,0,0,737.31,256.22Z"></path><path d="M871.87,89c.4,22-1.87,19.58-15.58,19.63-4.83,0-9.66,0-14.49.12-7.53.2-11.39,2.79-13.84,10-3.71,10.87-3.35,22.11-.94,33.06,1.45,6.59,7.5,9.44,13.64,11.21,9.56,2.74,18.44,6.77,26,13.43,6.67,5.91,11.63,13,12.92,21.95q3.25,22.44,5.55,45c.44,4.23-.3,8.66-1,12.92-4.49,27-21.4,42.22-50.76,44.87-7.88.71-15.92-.37-23.89-.78-4.05-.21-6.35-2.47-6.78-6.61-1.35-12.82-1.68-25.6,1.3-38.26,1.35-5.74,2.91-6.45,8.82-5.7a110.28,110.28,0,0,0,17.39,1c8.06-.26,12.16-4.52,12.52-12.63A71.09,71.09,0,0,0,842,224.3c-1.25-8.09-5.9-13.35-13.94-15.93a247.66,247.66,0,0,1-26.16-9.62c-8.19-3.68-12.85-10.7-15-19.49A202.93,202.93,0,0,1,784.48,93c2.67-14.29,11.91-23.73,25.09-28.83,16.7-6.46,34-7.47,51.59-3.7,5.27,1.13,8.19,3.66,8.62,9.26C870.33,77,871.34,84.3,871.87,89Z"></path><path d="M933.46,121.34q-1.39,53.45-2.78,106.9c-.17,6.37-1.55,8.24-8,8.1-8-.18-15.91-1.12-23.84-1.93-4.13-.42-5.83-3-6-7.19q-1.75-60.94-3.71-121.87-1.45-46.2-3-92.39c0-1.5-.1-3-.09-4.5,0-6.32,2.52-9.08,8.9-8.35,9.08,1,18.12,2.57,27.08,4.37,15.82,3.17,14.74,2.43,14.27,18q-1.49,49.45-3,98.89Z"></path><path d="M888.24,264.23c.6-6.89,1.61-8.51,8.32-10.29,9.15-2.42,18.34-4.8,27.62-6.65,8.16-1.63,10.41,0,12.13,8.19s3.28,16.3,4.38,24.52c.86,6.41-.4,8.13-6.53,9.68-10,2.52-20,5-30.12,6.83-6.87,1.23-8.58-.21-10.25-7C891.71,281.14,890.06,272.66,888.24,264.23Z"></path></svg>
