<svg id="Layer_1" data-name="Layer 1" xmlns="http://www.w3.org/2000/svg" viewBox="0 0 325 132" preserveAspectRatio="xMinYMin meet">
  <title>Cat Quest</title>
  <g>
    <g>
      <path d="M125.22,52.14H84.85a16.91,16.91,0,0,1-12.07-4.71,15.56,15.56,0,0,1-5-11.79V16.5a15.57,15.57,0,0,1,5-11.79A16.92,16.92,0,0,1,84.85,0h40.37V12.17H84.85Q80,12.17,80,16.52v19.1Q80,40,84.85,40h40.37V52.14Z"></path>
      <path d="M194.3,52.14H182.13V35.6H150.07V23.43h32.05v-7.3q0-4-2.64-4H145q-2.54,0-2.54,3.95v36H130.29v-36A16.78,16.78,0,0,1,134.4,4.76,13.36,13.36,0,0,1,145,0h34.49a13.48,13.48,0,0,1,10.7,4.76A16.78,16.78,0,0,1,194.3,16.1v36Z"></path>
      <path d="M257.19,12.17H233.66v40H221.48v-40H198V0h59.24V12.17Z"></path>
    </g>
    <g>
      <path d="M64.82,107.49a15.56,15.56,0,0,1-5,11.79A16.91,16.91,0,0,1,47.78,124H38.44v7.91H26.27V124H17A16.9,16.9,0,0,1,5,119.28a15.56,15.56,0,0,1-5-11.79V88.35A15.57,15.57,0,0,1,5,76.56,16.92,16.92,0,0,1,17,71.85H47.78a16.92,16.92,0,0,1,12.07,4.71,15.57,15.57,0,0,1,5,11.79v19.13Zm-12.17,0V88.37q0-4.35-4.87-4.35H17q-4.87,0-4.87,4.35v19.1q0,4.35,4.87,4.35h9.23V104H38.44v7.81h9.33Q52.65,111.82,52.65,107.47Z"></path>
      <path d="M134,107.86a16.7,16.7,0,0,1-4.16,11.36A13.49,13.49,0,0,1,119.19,124H84.7A13.45,13.45,0,0,1,74,119.22a16.81,16.81,0,0,1-4.11-11.36v-36H82.06v36q0,4,2.64,4h34.58q2.54,0,2.54-4v-36H134v36Z"></path>
      <path d="M194.76,84H151.24v7.81h40.68V104H151.24v7.81h43.42V124H139.07V71.85h55.69V84Z"></path>
      <path d="M262.11,107.91a16.75,16.75,0,0,1-4,11.23A13.69,13.69,0,0,1,247.4,124h-45V111.82h45q2.53,0,2.54-3.91T247.4,104H214.64a13.68,13.68,0,0,1-10.75-4.87A16.19,16.19,0,0,1,199.83,88,16.7,16.7,0,0,1,204,76.62a13.49,13.49,0,0,1,10.65-4.77h45V84H214.54Q212,84,212,88t2.54,3.86h32.83a13.75,13.75,0,0,1,10.78,4.85A16.73,16.73,0,0,1,262.11,107.91Z"></path>
      <path d="M325,84H301.46v40H289.29V84H265.76V71.85H325V84Z"></path>
    </g>
  </g>
</svg>
