<svg id="Layer_1" data-name="Layer 1" xmlns="http://www.w3.org/2000/svg" viewBox="0 0 325 225" preserveAspectRatio="xMinYMin meet">
  <title>Discount Salmon</title>
  <g>
    <path d="M9.95,115c0.83-.09,1.61-0.59,2.17-2.22l1.16-2.84c33.22-4.49,57.83-49.49,55.39-72.37-0.91-8.58-5.68-14-15.31-13-3.73.4-9.67,4.48-16.82,5.24-2,.21-3.81-0.43-5.88-0.21-2.28.24-5.4,1.41-5.82,4.29C24.18,38.43,14.05,81.78,0,109,0.32,112,7.46,115.24,9.95,115ZM40,44.89c2.88-3.44,5.77-5.84,8-6.09,1.86-.19,3.26,1.12,3.63,4.64,1.59,14.9-13.21,49.86-34.85,57.93C23.69,83.9,32.7,58.45,40,44.89Z"></path>
    <path d="M61.19,93c0.51,4.76,5.1,12.44,9.44,12a4.08,4.08,0,0,0,2.67-1.44c2.84-3,6.55-8.61,9.38-13.28,3.1,6.5,9.07,12.88,14.69,12.28,10.35-1.11,10.94-16.24,10-24.61-0.46-4.35-1.87-9.64-2.14-12.23a4.37,4.37,0,0,1,0-1.25c0.33-1.81,2.84-4.8,4.09-6.82a1.92,1.92,0,0,0,.29-1.18c-0.13-1.25-1.8-2.11-3.1-2.6-1.85-.64-7.23-3-10-3.13-1.86.19-2.73,2.91-2.52,5.82,0.18,3.43-2.11,10.27-5.18,15.84-1.33,2.06-2.7,4.16-3.92,6-0.33-.77-0.53-1.25-0.53-1.25-3.1.44-4.18,3-3.82,6.37,0,0.36.11,0.74,0.18,1.11A65,65,0,0,1,72,95.39a1.44,1.44,0,0,1-.69.38c-0.62.07-1-.62-1.11-1.56-0.22-2.07,5.22-15.84,11.56-28a4.75,4.75,0,0,0,.46-2.57c-0.37-3.52-5.39-6.43-8.5-6.1-1.76.19-4,.95-4.66,3.43C66.39,71.08,60.48,86.36,61.19,93ZM90,77.59c1-1.62,2.14-3.94,2.86-4.93a2.37,2.37,0,0,1,1.22-1.28c0.62-.06,1.21,2.48,1.56,5.8,0.59,5.48.35,13-2.86,13.39-1.55.16-3.94-4-5.77-7.71C88,81.08,89,79.31,90,77.59Z"></path>
    <path d="M84.92,53.41c2.79-.3,5.86-6.9,5.57-9.6s-4.3-7-9-6.48c-4,.43-7.64,6.89-7.25,10.5C74.62,51.05,81.4,53.78,84.92,53.41Z"></path>
    <path d="M121.84,99.39c8.16-.87,18.51-9.1,23.94-16.86a29.08,29.08,0,0,0,.09,4.67c0.66,6.21,3.7,10.18,10.32,9.48,5.17-.55,11.7-10,16.91-20a7.89,7.89,0,0,0,2.3,0,15.61,15.61,0,0,0,7.09-2.76,38.45,38.45,0,0,0-.25,9c0.72,6.73,3.17,9.08,6.27,8.75,3.93-.41,9.07-5.26,13-11.23,1.58,10,6.48,12.71,10.42,12.29,3-.32,5.49-2.47,5.28-4.44a1.8,1.8,0,0,0-.74-1.07,10.75,10.75,0,0,1-4.4-7.9c-0.76-7.15,3.55-16.81,8.54-25.92a6,6,0,0,0,.9-3.34c-0.53-5-11.26-4.56-11.26-4.56-2,3.15-5.53,14.93-7.52,23.73-3.62,8.34-8.7,15.57-11.6,15.88-1.14.13-2-.84-2.23-3.32-0.46-4.24,15.48-33.46,14.66-41.12-0.32-3-2.91-3.77-5.92-3.46a23.2,23.2,0,0,0-8.68,3,1.6,1.6,0,0,0-1,1.37c0.11,1,1.13,1.76,1.24,2.79,0.39,3.67-2.86,12-5.11,21.13-2.52,2.86-5.24,4.26-7.64,4.51l-0.21,0c3.48-7.6,5.79-14.43,5.59-16.3-0.36-3.41-4.55-7.37-9.83-6.8-2.86-1.37-4.76-4.42-7.14-4.16-5.6.6-13.71,15.12-17.31,29-1.35,2-2.53,3.76-3.28,4.74-4.94,6.7-13.28,14.82-18.87,15.41-3.11.33-5.32-1.74-5.95-7.64-0.94-8.79,5.28-22.11,13-22.94h0.11a10.55,10.55,0,0,0-.23,3.69c0.36,3.41,2.37,6.55,6.2,6.14a1.23,1.23,0,0,0,1.06-.85c2.23-6.62,8.54-15.14,9.34-17.43a3.68,3.68,0,0,0,.23-1.8c-0.29-2.69-3.45-4.87-6.76-4.51a6.87,6.87,0,0,0-3,1.05,9.9,9.9,0,0,0-5.44-1c-12.63,1.34-25.17,26-23.59,40.82C111.43,96.94,116,100,121.84,99.39ZM166,61.09l0.32,0a16.82,16.82,0,0,0-1.17,7.76,9.66,9.66,0,0,0,1.25,3.84c-3.1,8.28-8.95,18.12-11.74,18.41-0.62.07-1.08-.3-1.18-1.23C152.21,77.94,161.56,61.57,166,61.09Z"></path>
    <path d="M250.91,78c-1.06-10,4.91-22.71,10.73-31.91a5.61,5.61,0,0,0,1.08-3.57c-0.31-2.9-4.41-4-8.17-3.94-13,6.09-27.46,39.87-29.53,42.08-0.59-5.48,6.5-21.52,15.84-33a4.48,4.48,0,0,0,1.81-3.75c-0.35-3.31-5.33-5.81-7.92-5.54-8.07.86-19.54,29.71-18,44,0.49,4.65,7,8,9.42,7.79,1.13-.13,1.9-0.83,2.26-2.34,2.31-10.71,13.09-30.38,23.51-36.62-6.13,9.23-14,22.43-12.89,33.19,0.9,8.39,6.58,10.61,11.44,10.08,3.83-.41,7.05-2.53,6.84-4.6a1.83,1.83,0,0,0-.75-1.07A15.73,15.73,0,0,1,250.91,78Z"></path>
    <path d="M320.38,10c-7,.75-17.35,2.27-28.07,3.72,0.86-1.76,1.74-3.32,2.44-4.65a4.66,4.66,0,0,0,.46-2.56c-0.37-3.52-5.85-6.81-9-6.48-1.76.19-4,.95-4.66,3.42a108.22,108.22,0,0,1-4.45,12.2c-5.49.59-10.79,0.94-15.28,1-0.62.06-1.17,1.8-.94,3.86,0.33,3.11,2.39,6.76,9,6.06l2.9-.31c-7.27,18.26-16.14,41.07-15.33,48.63,0.5,4.65,6.64,9.24,11,8.77a4.23,4.23,0,0,0,2.59-1.22c3.69-3.64,9.62-11.91,12.45-16.82C288.45,57,293.73,47.69,296,42.93c0,0-.83-1.89-1.76-1.8a1.1,1.1,0,0,0-.76.71c-1.59,2.79-10.4,16.39-13,20.13a53.57,53.57,0,0,1-10.43,12.1,6.93,6.93,0,0,1-2.87,1.56c-0.83.09-1.2-.5-1.31-1.53-0.62-5.9,11.54-31.16,20.79-49.41,15.27-2.05,33.88-5.18,33.47-9-0.09-.83-1.17-1.13-1.21-1.55,0-.21.27-0.44,1.39-0.67,2.72-2,4.71-2.91,4.67-3.32C325,9.92,324.23,9.79,320.38,10Z"></path>
    <path d="M211.35,188.8c-18.54,2.3-45.73,6.39-74,10.44l-40,5.51c-14.45,1.8-28.4,3.18-40.22,3.94-1.64.21-3.2,3.23-2.77,6.71,0.65,5.22,5.82,11.11,23.27,8.95l7.64-.95,36.53-4.73c40.28-5.71,89.4-13.76,88.6-20.2-0.18-1.39-3-1.74-3.07-2.45,0-.35.73-0.79,3.71-1.35,7.29-3.73,12.59-5.63,12.51-6.33C223.44,188,221.49,187.88,211.35,188.8Z"></path>
    <path d="M62.37,129.88c-0.76-4.31-5.48-8.7-8.42-11.36-0.3-.27-0.58-0.49-0.86-0.72a75,75,0,0,1,5.67-10.36,0.85,0.85,0,0,0,0-.6c-0.34-1.84-3.59-3.85-6-3.41a4.89,4.89,0,0,0-3.4,2.62c-1.16,2.78-2.66,5.79-4,8.85H44.19c-18,.35-30.4,30.1-28.33,41.78,1.12,6.34,5.21,13.06,9,18.84l-2.54,7.64-2.27,6.9a43.61,43.61,0,0,1-9.93-5.94,2.12,2.12,0,0,0-1.81-.63c-2,.36-2.72,3.76-2.43,5.39,0.92,5.23,5.34,9,10.92,11.14l-1.74,5.41c-3.25,10.11,1.16,10.77,1.16,10.77,1.69-.31,4.13-1.95,4.41-3.19,0.39-2,1.07-4.35,1.71-7l1.22-4.3a31.53,31.53,0,0,0,9.84-.08c7.89-1.4,14-6.18,12.49-14.79-1.26-7.14-7-13.82-11.61-19.82,2.8-8.33,5.78-16.69,8.67-24.63l4.1-10.2c1.44,0.38,2.66,1.35,1.46,3.79-0.09.19-7.37,15-8.23,17.3a5.48,5.48,0,0,0-.33,2.9c0.44,2.47,5.19,7.22,7.64,6.79a2.87,2.87,0,0,0,1.82-1.69c6.08-11.64,12.09-26,12.68-27.5A9.05,9.05,0,0,0,62.37,129.88ZM28.53,191.35a11.72,11.72,0,0,1-2,.15c0.45-1.51.92-3,1.42-4.65l1.43-4.5a19.39,19.39,0,0,1,2.82,5.82C32.6,190.42,30.18,191.06,28.53,191.35Zm0-34.64c-1.14-6.47,3.56-16.88,9.84-21.87L34.28,147l-4.4,13.46A13.32,13.32,0,0,1,28.5,156.71Z"></path>
    <path d="M239.07,117.33c-12.5,7-24.65,41.67-26.56,44-1-5.43,5-21.91,13.54-34a4.49,4.49,0,0,0,1.53-3.86c-0.58-3.29-5.71-5.44-8.27-5-4.63.82-9.75,11.07-12.75,22.31l-0.09.15c-2.61,4.37-5.82,6.52-8.69,7l-0.21,0c2.95-7.81,4.78-14.79,4.46-16.63-0.6-3.38-5.05-7-10.28-6.11-3-1.17-5.06-4.07-7.41-3.66-6.11,1.08-14.08,19.2-15.93,34.29l-0.23.39a90.13,90.13,0,0,1-5.92,9,4.21,4.21,0,0,1-2.21,1.87c-0.61.11-1.21-.31-1.44-1.54a15.12,15.12,0,0,1,.3-4.92c0.66-4,6.81-14.09,9.24-18.86a5.67,5.67,0,0,0,.61-3.7c-0.65-3.69-5.45-5.69-9.29-5.33-2.48,1.5-7.84,11.22-12.16,19.06a4.42,4.42,0,0,1-1.47.68,0.27,0.27,0,0,1-.36-0.26c-0.09-.51.45-1.67,1.62-5.15a4.3,4.3,0,0,0,.09-2.45c-0.58-3.28-3.6-7.18-6.26-6.71a3.06,3.06,0,0,0-1.53.9c-4.63,4.94-14.19,22-16.34,22.34a0.26,0.26,0,0,1-.26-0.27c-0.31-1.75,7.37-16.32,9.63-19a4.65,4.65,0,0,0,1.42-3.95c-0.56-3.18-5.6-5.35-8.16-4.9-4.38.78-8.94,12.68-12,24.5-2.15,3.87-4.27,7.59-5.31,9.31a65.79,65.79,0,0,1-8.82,12.87,1.48,1.48,0,0,1-.66.44c-0.62.1-1.05-.56-1.21-1.48-1-5.84,11.18-42.56,20-57.65,2.36-4,3-7.08,2.58-9.33-1-5.74-8.38-6.76-11.87-6.15-3,.53-3.72,1.09-3.61,1.69s1.35,1.66,1.57,2.9a2,2,0,0,1-.19,1.3c-5.95,15.72-17.46,49.67-18.15,63.63l-0.19,0c-0.82,1.31-4.24,5.93-6.39,6.31a2.36,2.36,0,0,1-2.67-2c-0.69-3.89,4.66-16.67,6.39-20a3.64,3.64,0,0,0,.51-1.89c-0.38-2.15-4.45-3.65-8.85-2.87a12.9,12.9,0,0,0-3.31,1c-0.16,9.85-7.55,32-13.7,33.07-0.72.12-1.17-.65-1.4-2-1.29-7.28,3.88-31.24,18.84-33.88a18,18,0,0,1,5.06,0,5.1,5.1,0,0,0,1.16,0c1.74-.31,2.82-3.78,2.22-7.16-0.65-3.69-3.29-7.23-9.23-6.19-17.93,3.17-28,34.76-25.27,50.13,0.85,4.82,5.56,6.94,10.07,6.14,2.77-.49,6.92-4.5,10.44-10.3,1,3.95,3.41,5.53,6.48,5,3.33-.59,7.33-4,10.48-9.88,1.61,4.47,6.11,9.69,10,9a4.72,4.72,0,0,0,2.75-1.75c3-3.54,6.8-10.6,9.36-15.7a32.46,32.46,0,0,0-.42,8.31c0.82,4.61,6.42,7.63,8.78,7.21,1.13-.2,1.84-1,2.1-2.48,0.81-5,9.09-25.71,13.49-26.49a1.17,1.17,0,0,1,.87.16s-4.75,11.41-3.59,18c0.49,2.77,4.75,4.14,7.72,3.6,1.44-.25,2.58-1,2.79-2.18,3.28-15.49,7-20.58,7.64-20.7l0.12,0.09a27.66,27.66,0,0,0-.55,11.19c1,5.53,4.09,8.79,8,8.09,3.17-.56,6.95-3.77,10.56-10.38,0,0.26.07,0.53,0.11,0.79,1.09,6.15,4.39,9.9,11,8.74,5.12-.91,11-10.82,15.5-21.13a8.35,8.35,0,0,0,2.29-.2,15.8,15.8,0,0,0,7.31-3.59,42.84,42.84,0,0,0-.13,12.57c0.82,4.61,7.57,7.54,9.93,7.12,1.12-.2,1.84-1,2.09-2.48,1.57-10.85,11-31.22,20.93-38.16-5.48,9.63-12.46,23.34-10.57,34,1.47,8.3,7.29,10.13,12.1,9.28,3.79-.67,6.87-3,6.5-5.06a1.8,1.8,0,0,0-.81-1,15.69,15.69,0,0,1-6.38-10.39c-1.76-9.93,3.33-23,8.51-32.57a5.62,5.62,0,0,0,.84-3.64C247,117.84,242.82,117,239.07,117.33ZM177.46,170.5c-0.61.11-1.1-.23-1.26-1.15-2.08-11.78,6.11-28.77,10.52-29.55l0.31-.06a16.8,16.8,0,0,0-.62,7.82,9.6,9.6,0,0,0,1.51,3.75C185.4,159.8,180.23,170,177.46,170.5Z"></path>
  </g>
</svg>
