<svg id="Layer_1" data-name="Layer 1" xmlns="http://www.w3.org/2000/svg" viewBox="0 0 325 99.91" preserveAspectRatio="xMinYMin meet">
  <title>Kingmaker</title>
  <g>
    <polygon points="20.6 43.92 20.6 0 64.52 0 20.6 43.92"></polygon>
    <polygon points="64.52 99.91 20.6 99.91 20.6 55.99 64.52 99.91"></polygon>
    <rect width="13.06" height="99.91"></rect>
    <rect x="32.43" y="36.66" width="26.58" height="26.58" transform="translate(-21.93 46.96) rotate(-45)"></rect>
    <path d="M69.46,13.74h8.46V85.9H69.46V13.74Z"></path>
    <polygon points="143.48 37.13 143.48 13.74 114.91 13.74 114.91 85.9 143.48 85.9 143.48 45.75 143.48 45.75 143.48 45.59 129.64 45.59 129.64 54.05 135.02 54.05 135.02 77.44 123.37 77.44 123.37 22.21 135.02 22.21 135.02 37.13 143.48 37.13"></polygon>
    <polygon points="102.24 13.74 102.24 54.83 90.59 13.74 90.59 13.74 90.59 13.74 82.13 13.74 82.13 85.9 90.59 85.9 90.59 44.81 102.24 85.9 102.24 85.9 102.24 85.9 110.7 85.9 110.7 13.74 102.24 13.74"></polygon>
    <polygon points="177.55 13.75 168.85 66.97 160.16 13.75 147.69 13.74 147.69 85.9 156.15 85.9 156.15 41.72 163.37 85.9 174.34 85.9 181.55 41.72 181.55 85.9 190.01 85.9 190.01 13.74 177.55 13.75"></polygon>
    <polygon points="261.5 13.75 252.38 13.75 239.44 45.86 239.44 13.74 230.97 13.74 230.97 85.9 239.44 85.9 239.44 53.84 252.36 85.9 261.48 85.9 246.95 49.85 261.5 13.75"></polygon>
    <polygon points="290.28 22.21 290.28 13.75 273.18 13.74 264.71 13.74 264.71 85.9 290.28 85.9 290.28 77.44 273.18 77.44 273.18 54.05 287.86 54.05 287.86 45.59 273.18 45.59 273.18 22.21 290.28 22.21"></polygon>
    <path d="M219.19,85.9h8.57L216,13.75H205L193.22,85.9h8.57l3.82-23.39h9.75ZM207,54.05l3.49-21.38L214,54.05h-7Z"></path>
    <path d="M325,85.88L312.17,54.05h10.89V13.74H294.49V85.9H303V54.05H303l12.83,31.82H325ZM303,22.25H314.6V45.59H303V22.25Z"></path>
  </g>
</svg>
