<svg xmlns="http://www.w3.org/2000/svg" viewBox="0 0 612 239.63">
  <title>letter-go</title>
  <g>
    <path d="M457.56,9.16C445.23-2.16,425.2-1.68,411.82,3.57c-28.56,11.19-45.38,43.33-51.59,69.68-6.94,29.43-4.5,68.54,16.59,89.59,9.92,9.89,24.81,15.87,39.3,15.87.71,0,1.41,0,2.11-.05,14.25-.57,25.91-9,32-23,5.71-13.18,7.6-32.55-5.88-43.81a47,47,0,0,0-28.83-10.6c-1.65,0-16.29-.08-20.66,6.91-1.15,1.83-2.06,4.92.14,9.25s7.23,7,12.53,6.61a10.7,10.7,0,0,0,5.69-1.9,14.44,14.44,0,0,0,2.51-2.49c.23-.28.46-.55.7-.82a13.55,13.55,0,0,1,1.78-1.61,10,10,0,0,1,5-2,5.47,5.47,0,0,1,5.06,2c4.29,5.06,3.87,17.71,2.44,23.08-4,14.94-16.05,18.34-29.84,12.5-23.67-10-22.85-43-19.57-64.4C384.82,65.18,395.07,42,412.56,26a28.71,28.71,0,0,1,10.14-6.3,28.08,28.08,0,0,1,7.75-2.19,13.89,13.89,0,0,1,11.95,5.84A16.82,16.82,0,0,1,444.81,37l-.09.37a8.93,8.93,0,0,0-.36,3.46,7.28,7.28,0,0,0,4.53,5.35,11.92,11.92,0,0,0,11.74-1.29c3.19-2.35,5-6.39,5.3-11.68C466.39,24.59,462.63,13.82,457.56,9.16Z"/>
    <path d="M557.41,44c-4.52-19.43-15.56-31.3-31.09-33.42-15.88-2.17-30.61,4.35-42.57,18.86-19,23-31.13,58.36-33.27,96.88-.91,16.41,1.26,38.67,16.75,51.53a43.82,43.82,0,0,0,28,9.84A45.49,45.49,0,0,0,515.39,183c2.32-1.15,2.55-2.81,2.48-3.71q14.64-7.12,25.48-28.06C560.19,118.64,565.45,78.55,557.41,44ZM504.79,163c-8.13-.43-15.67-8.28-15.82-16.47v-.49c0-2.46-.08-6.18-3.21-7.85a5.07,5.07,0,0,0-2.41-.61,5.18,5.18,0,0,0-1.8.32c-2.58.92-4.53,3.7-5.49,6-.29.69-.59,1.45-.89,2.26l0-.19a95.79,95.79,0,0,1-.56-23.55c2.05-25.34,12.61-50.6,20.38-67.4,5.4-11.67,14.3-24.48,23.08-25.4,4.12-.44,8.12,1.92,11.92,7,7.23,9.65,7.15,24,7.08,36.58,0,1.34,0,2.66,0,3.94,0,26.45-5.35,51.94-14.77,69.94C520.24,151,513,163.47,504.79,163Z"/>
    <path d="M579.07,23.34a24.94,24.94,0,0,0-3.87,5.72c-3.39,6.89-4,14.79-4.33,22.47-2,42.4-4.71,80.27-17.48,120.88-.79,2.49-1.54,5.1-1.12,7.68s2.42,5.09,5,5.22,4.86-2.15,6.51-4.29c12.61-16.42,18.27-36.12,26-54.85,8.8-21.23,14.53-44.45,19.61-66.81,1.95-8.55,3.69-17.5,1.6-26s-9.15-16.46-17.92-16.7C587.73,16.49,582.74,19.28,579.07,23.34Z"/>
    <path d="M550.9,191.89c-8-2.18-18.11.86-22.26,8.47-3.71,6.82-1.63,14.33,2.68,20.34,3.15,4.39,11.55,4.13,15.62,1.4l2.68-1.8a12.46,12.46,0,0,0,1.73-1.38c4.71-2.3,8.68-6.14,9.89-11.31C562.94,200.37,557.7,193.73,550.9,191.89Z"/>
    <path d="M138.38,147.37a7.11,7.11,0,0,0-3,1.54c-3.9,3.48-6.51,6.05-11.12,8.82a43.39,43.39,0,0,1-15,5.57c-4.09.7-7.92,1.49-10.86-2.34a12.37,12.37,0,0,1-2.11-8.64c9.09,1.36,19.78-5.22,26.49-10.64,7.5-6.05,7.89-14.42,3.52-22.68-4.17-7.89-12.17-15.23-21.56-15.08-10.77.16-18,9.46-21.16,18.85-6.26,18.35-7.65,42.05,11.44,53.36,11.61,6.87,26.65,5,38.13-1.16,8-4.32,27.82-22.28,9.69-27.51A8.81,8.81,0,0,0,138.38,147.37Zm-30.52-25.78a6,6,0,0,1,2.86-.47c7.47.68-5.22,9.07-6.65,9.92a47.66,47.66,0,0,1-5.86,3,35.37,35.37,0,0,1,2.19-4.76C101.89,126.67,104.62,122.93,107.86,121.59Z"/>
    <path d="M188.13,91.55c-3-5.43-9.65-7.06-15.29-6.32q-6.69.88-13.4,1.49-1.51-5.84-3-11.66c-1.9-7.36-25-6.58-22.62,2.73l2.67,10.39q-6.24.21-12.48.26c-5.23,0-9.7,3.91-8.4,9.35,1.33,5.65,8.29,9,13.6,9q6,0,12-.28,4.75,18.44,9.5,36.86c1.9,7.36,25,6.58,22.63-2.73q-4.59-17.81-9.19-35.61,9.66-.87,19.3-2.14C189,102.14,190.5,95.83,188.13,91.55Z"/>
    <path d="M221.1,104.15c-1.41.31-2.82.6-4.24.88L215.51,83.8a15.76,15.76,0,0,0-9.68-13c-3.76-1.54-10.52-1.21-10.16,4.52q1.05,16.29,2.08,32.56c-3.64.34-7.3.59-11,.7-5.82.18-12,3.42-12.75,9.79-.67,5.74,4.75,11,10.43,10.84q7.34-.23,14.6-.89,1.2,18.71,2.39,37.4a15.72,15.72,0,0,0,9.68,13c3.76,1.54,10.52,1.21,10.15-4.52l-3.09-48.52c2.29-.42,4.57-.87,6.85-1.37C239.48,121.13,235.64,101,221.1,104.15Z"/>
    <path d="M292.85,136.73a8.34,8.34,0,0,0-5.31-4.63,13.5,13.5,0,0,0-4.26-.21,11.07,11.07,0,0,0-5.88,1.62c-1.68,1.22-2.61,3.2-3.56,5.05s-2.12,3.77-4,4.62c-4.94,2.23-6.92-3.81-7.66-7.21a46.6,46.6,0,0,1-1-8.43c9-.59,18.59-2.13,25.74-8.07,6.89-5.72,7.73-18.06,3.64-25.65-6.81-12.64-26.32-11.34-35.91-3.66-12.82,10.27-18.85,23.77-17.15,40.1,2,18.61,19.62,27.27,36.72,25.37,4.26-.47,8.58-1.32,12.3-3.46s6.76-5.8,7.27-10.06A9.9,9.9,0,0,0,292.85,136.73ZM262,114.43c1.68-6.31,3.74-15,11.83-15.28a4.33,4.33,0,0,1,2.46.5C286,105.63,264.72,113,262,114.43Z"/>
    <path d="M350.52,96.21a15.63,15.63,0,0,0-7.28-8.73C339,85,334,84.1,329.12,83.24c-5.52-1-10.8-.49-16.31-.23-4.9.24-10.65,1.53-13.76,5.67-2.71,3.62-1.56,8.27-1,12.39.94,7,1.93,13.89,2.9,20.84l5.37,38.71c.83,5.93,23.3,7.79,23.12,3.61-.37-9.49-.82-19-1.23-28.46-.37-8.43-1.74-16.49-2.42-24.92a36,36,0,0,1-.06-8c.46-3.18,2.21-8.78,6.32-6.08,2.26,1.48,3.1,4.46,3,7.16-.07,1.49-.37,3.07.3,4.41a4.51,4.51,0,0,0,2.14,2,8.33,8.33,0,0,0,7.9-.56,12,12,0,0,0,4.9-6.44,12.48,12.48,0,0,0,.72-4A10.77,10.77,0,0,0,350.52,96.21Z"/>
    <path d="M172,180c-3.48-3.81-9.11-5.65-15.32-5a44.63,44.63,0,0,0-8.36,2c-11.68,3.59-22.81,11.12-33.89,16.4q-17.7,8.42-35.84,15.87c-2.88,1.18-5.88,2.37-9,2.27C54,211.14,48.86,169,47.09,157.71a624.23,624.23,0,0,1-7.45-95.77c0-9.07-.15-18.57-4.44-26.55S21,21.64,12.61,25.13C4.88,28.35,1.73,37.58.7,45.89-1.58,64.28,2.14,82.83,5.84,101c3.35,16.42,5.55,32.93,8.81,49.25,2.74,13.76,5.1,27.58,7.27,41.44,1.62,10.36,3.47,20.93,8.65,30.19C40,238.66,62.19,243.37,79,236.74c25.93-10.23,50.73-34.92,80-32.32,4.91.43,10.91-1.22,14-5.25a12.77,12.77,0,0,0,2.39-5.64C176.38,187.84,175,183.24,172,180Z"/>
  </g>
</svg>
