<svg id="Layer_1" data-name="Layer 1" xmlns="http://www.w3.org/2000/svg" viewBox="0 0 325 246" preserveAspectRatio="xMinYMin meet">
  <title>Nom Nom Pretzel</title>
  <g>
    <path d="M222.92,135.33c-14.55-12.43-28.89-24.94-39.57-34.75C194.11,85,194.67,75.22,194.29,66.51c0-.66-0.05-1.22-0.05-1.65,0-8-3.76-17-8.64-24.36,17.26-9.66,40-14.27,62.27,5.47,16.75,14.84,12,36.24,7.63,47.67-5.7,15-17.09,30.12-32.58,41.7M161.57,156H161a100.64,100.64,0,0,1-30.61-4.75c13.59-11.71,23.54-20.58,30.91-27.38,7.35,6.8,17.3,15.67,30.89,27.38A100.56,100.56,0,0,1,161.57,156m-62-20.64C84.13,123.75,72.73,108.64,67,93.62,62.7,82.19,57.93,60.79,74.66,46,86,35.95,97.38,32.2,108.14,32.2c10.47,0,20.29,3.53,28.79,8.29-4.86,7.38-8.59,16.34-8.63,24.36,0,0.44,0,1-.05,1.65-0.38,8.71.19,18.51,10.94,34.07-10.69,9.81-25,22.33-39.58,34.76M160.3,67.9c0-.8.07-1.69,0.09-2.64a12,12,0,0,1,.89-2.61,11.88,11.88,0,0,1,.88,2.61c0,1,0,1.85.08,2.64a14.83,14.83,0,0,1-1,6.87,14.61,14.61,0,0,1-1-6.87M285.5,105c12.19-32.14,6.07-63.2-16.36-83.08-24-21.29-52.32-27.24-81.8-17.16A112.48,112.48,0,0,0,161.27,17.9,112.76,112.76,0,0,0,135.18,4.77C105.71-5.3,77.42.64,53.39,21.94,30.95,41.82,24.83,72.87,37,105c7.28,19.2,20.44,37.16,37.53,51.41-2.83,2.36-5.59,4.64-8.25,6.83A16,16,0,1,0,86.71,188c0.12-.09,6.59-5.42,16-13.35A132.87,132.87,0,0,0,161,188.08h0.59a132.78,132.78,0,0,0,58.21-13.41c9.47,7.93,15.93,13.27,16,13.35a16,16,0,0,0,20.4-24.77L248,156.43c17.09-14.25,30.25-32.21,37.53-51.41"></path>
    <g>
      <path d="M23.74,245.18H16.53L4.89,224.94H4.72q0.35,5.36.35,7.65v12.59H0V218.42H7.16l11.62,20h0.13q-0.27-5.22-.27-7.38V218.42h5.11v26.76Z"></path>
      <path d="M48.63,234.91q0,5-2.64,7.82a9.56,9.56,0,0,1-7.34,2.82,10.26,10.26,0,0,1-5.2-1.29A8.59,8.59,0,0,1,30,240.55a12.45,12.45,0,0,1-1.21-5.64q0-5,2.62-7.8a9.61,9.61,0,0,1,7.36-2.78,10.33,10.33,0,0,1,5.2,1.28,8.54,8.54,0,0,1,3.46,3.68A12.34,12.34,0,0,1,48.63,234.91Zm-14.15,0a8.58,8.58,0,0,0,1,4.59,3.57,3.57,0,0,0,3.25,1.56,3.51,3.51,0,0,0,3.21-1.55,8.72,8.72,0,0,0,1-4.6,8.46,8.46,0,0,0-1-4.56,3.57,3.57,0,0,0-3.24-1.52,3.56,3.56,0,0,0-3.22,1.51A8.44,8.44,0,0,0,34.48,234.91Z"></path>
      <path d="M71.56,245.18H66v-12a6,6,0,0,0-.74-3.32,2.61,2.61,0,0,0-2.33-1.11,3.38,3.38,0,0,0-3.11,1.57,10.32,10.32,0,0,0-1,5.18v9.63H53.24V224.72h4.26l0.75,2.62h0.31a5.67,5.67,0,0,1,2.38-2.21,7.72,7.72,0,0,1,3.57-.8q4.6,0,6.22,3h0.49a5.52,5.52,0,0,1,2.43-2.21,8.1,8.1,0,0,1,3.61-.79,7.14,7.14,0,0,1,5.26,1.78q1.78,1.78,1.78,5.72v13.34h-5.6v-12a6,6,0,0,0-.74-3.32,2.61,2.61,0,0,0-2.33-1.11,3.48,3.48,0,0,0-3.07,1.46,8.31,8.31,0,0,0-1,4.65v10.27Z"></path>
      <path d="M124,245.18h-7.21l-11.64-20.24h-0.16q0.35,5.36.35,7.65v12.59h-5.07V218.42h7.16l11.62,20h0.13q-0.27-5.22-.27-7.38V218.42H124v26.76Z"></path>
      <path d="M148.86,234.91q0,5-2.64,7.82a9.56,9.56,0,0,1-7.34,2.82,10.26,10.26,0,0,1-5.2-1.29,8.59,8.59,0,0,1-3.46-3.71,12.45,12.45,0,0,1-1.21-5.64q0-5,2.62-7.8a9.61,9.61,0,0,1,7.36-2.78,10.33,10.33,0,0,1,5.2,1.28,8.54,8.54,0,0,1,3.46,3.68A12.34,12.34,0,0,1,148.86,234.91Zm-14.15,0a8.58,8.58,0,0,0,1,4.59,3.57,3.57,0,0,0,3.25,1.56,3.51,3.51,0,0,0,3.21-1.55,8.72,8.72,0,0,0,1-4.6,8.46,8.46,0,0,0-1-4.56,4.2,4.2,0,0,0-6.46,0A8.44,8.44,0,0,0,134.71,234.91Z"></path>
      <path d="M171.79,245.18h-5.58v-12a6,6,0,0,0-.74-3.32,2.61,2.61,0,0,0-2.33-1.11,3.38,3.38,0,0,0-3.11,1.57,10.32,10.32,0,0,0-1,5.18v9.63h-5.58V224.72h4.26l0.75,2.62h0.31a5.67,5.67,0,0,1,2.38-2.21,7.72,7.72,0,0,1,3.57-.8q4.6,0,6.22,3h0.49a5.52,5.52,0,0,1,2.43-2.21,8.1,8.1,0,0,1,3.61-.79,7.14,7.14,0,0,1,5.26,1.78q1.78,1.78,1.78,5.72v13.34h-5.6v-12a6,6,0,0,0-.74-3.32,2.61,2.61,0,0,0-2.33-1.11,3.48,3.48,0,0,0-3.07,1.46,8.31,8.31,0,0,0-1,4.65v10.27Z"></path>
      <path d="M218.94,226.77a8.18,8.18,0,0,1-2.7,6.61q-2.7,2.29-7.68,2.29h-2.43v9.52h-5.67V218.42H209q4.87,0,7.4,2.1T218.94,226.77ZM206.12,231H208a6.22,6.22,0,0,0,3.92-1,3.62,3.62,0,0,0,1.3-3,3.71,3.71,0,0,0-1.09-2.95,5.11,5.11,0,0,0-3.41-1h-2.58V231Z"></path>
      <path d="M235,224.33a9,9,0,0,1,1.89.16l-0.42,5.23a6.42,6.42,0,0,0-1.65-.18,5.92,5.92,0,0,0-4.16,1.37,5,5,0,0,0-1.49,3.84v10.41h-5.58V224.72h4.23l0.82,3.44h0.27a7.7,7.7,0,0,1,2.57-2.77A6.33,6.33,0,0,1,235,224.33Z"></path>
      <path d="M249.83,245.55q-4.94,0-7.72-2.73t-2.78-7.72q0-5.14,2.57-8a9.15,9.15,0,0,1,7.11-2.81,9,9,0,0,1,6.75,2.47,9.35,9.35,0,0,1,2.42,6.83v2.71H245a5.38,5.38,0,0,0,1.41,3.72,5,5,0,0,0,3.7,1.34,15.34,15.34,0,0,0,3.5-.38,17.56,17.56,0,0,0,3.44-1.23v4.32a13.16,13.16,0,0,1-3.13,1.09A19.72,19.72,0,0,1,249.83,245.55ZM249,228.3a3.54,3.54,0,0,0-2.78,1.13,5.22,5.22,0,0,0-1.15,3.19h7.83a4.66,4.66,0,0,0-1.08-3.19A3.66,3.66,0,0,0,249,228.3Z"></path>
      <path d="M271.34,241.1a12.07,12.07,0,0,0,3.51-.64v4.15a12.53,12.53,0,0,1-5.12.93q-3.35,0-4.88-1.69a7.37,7.37,0,0,1-1.53-5.08v-9.87h-2.67v-2.36l3.07-1.87,1.61-4.32h3.57v4.36h5.73v4.19H268.9v9.87a2.17,2.17,0,0,0,.67,1.76A2.64,2.64,0,0,0,271.34,241.1Z"></path>
      <path d="M293.23,245.18H277.07v-3.29l9.48-12.9h-8.91v-4.26H292.9v3.62l-9.22,12.57h9.55v4.26Z"></path>
      <path d="M306.53,245.55q-4.94,0-7.72-2.73T296,235.09q0-5.14,2.57-8a9.15,9.15,0,0,1,7.11-2.81,9,9,0,0,1,6.75,2.47,9.35,9.35,0,0,1,2.42,6.83v2.71h-13.2a5.38,5.38,0,0,0,1.41,3.72,5,5,0,0,0,3.7,1.34,15.34,15.34,0,0,0,3.5-.38,17.56,17.56,0,0,0,3.44-1.23v4.32a13.16,13.16,0,0,1-3.13,1.09A19.72,19.72,0,0,1,306.53,245.55Zm-0.79-17.24a3.54,3.54,0,0,0-2.78,1.13,5.22,5.22,0,0,0-1.15,3.19h7.83a4.66,4.66,0,0,0-1.08-3.19A3.66,3.66,0,0,0,305.75,228.3Z"></path>
      <path d="M325,245.18h-5.58V216.7H325v28.48Z"></path>
    </g>
  </g>
</svg>
