<svg xmlns="http://www.w3.org/2000/svg" viewBox="0 0 44 44">
  <title>social_twitter</title>
  <path d="M32.45,14.3a8.38,8.38,0,0,1-2.61,1A4.12,4.12,0,0,0,22.74,18a4,4,0,0,0,.11.92,11.75,11.75,0,0,1-8.46-4.22,4,4,0,0,0,1.27,5.39,4.19,4.19,0,0,1-1.86-.5v.05a4.07,4.07,0,0,0,3.29,4,4.2,4.2,0,0,1-1.08.14,4.9,4.9,0,0,1-.77-.07,4.1,4.1,0,0,0,3.83,2.8A8.25,8.25,0,0,1,14,28.24a7.93,7.93,0,0,1-1-.06A11.72,11.72,0,0,0,19.29,30,11.49,11.49,0,0,0,31,18.51c0-.18,0-.35,0-.52A8.31,8.31,0,0,0,33,15.9a8.48,8.48,0,0,1-2.36.63A4.08,4.08,0,0,0,32.45,14.3ZM22,0A22,22,0,1,0,44,22,22,22,0,0,0,22,0Zm0,42A20,20,0,1,1,42,22,20,20,0,0,1,22,42Z" />
</svg>
